<?xml version="1.0" standalone="no"?>
<!DOCTYPE svg PUBLIC "-//W3C//DTD SVG 20010904//EN"
 "http://www.w3.org/TR/2001/REC-SVG-20010904/DTD/svg10.dtd">
<svg version="1.0" xmlns="http://www.w3.org/2000/svg"
 width="16.000000pt" height="16.000000pt" viewBox="0 0 16.000000 16.000000"
 preserveAspectRatio="xMidYMid meet">
<metadata>
Created by potrace 1.11, written by Peter Selinger 2001-2013
</metadata>
<g transform="translate(0.000000,16.000000) scale(0.001900,-0.001900)"
fill="#000000" stroke="none">
<path d="M4218 7155 c-2 -2 -55 -5 -118 -9 -123 -6 -142 -9 -290 -32 -543 -88
-1073 -347 -1495 -732 -120 -109 -145 -136 -249 -257 -95 -111 -94 -110 -162
-205 -310 -431 -494 -937 -541 -1480 -25 -299 3 -647 78 -945 248 -988 975
-1774 1936 -2091 316 -104 606 -149 943 -148 191 1 289 10 540 50 83 13 325
80 439 121 348 125 629 288 937 545 70 58 268 262 338 348 43 52 85 104 94
115 32 39 155 228 200 308 156 273 261 550 326 862 23 109 32 170 52 350 8 73
9 433 1 495 -3 25 -9 72 -12 105 -53 490 -264 1017 -569 1420 -190 249 -448
500 -666 645 -12 8 -32 22 -44 31 -101 77 -395 231 -576 302 -172 67 -443 143
-575 161 -22 3 -71 10 -110 15 -123 18 -465 36 -477 26z"/>
</g>
</svg>
